<mxfile host="app.diagrams.net" modified="2024-05-02T06:30:10.286Z" agent="Mozilla/5.0 (Windows NT 10.0; Win64; x64) AppleWebKit/537.36 (KHTML, like Gecko) Chrome/122.0.0.0 YaBrowser/24.4.0.0 Safari/537.36" version="24.3.1" etag="YndEaQS0cWgpsAicJTp4" type="device">
  <diagram id="q76JjExoBfzOKUblSMGr" name="Страница — 1">
    <mxGraphModel dx="646" dy="371" grid="1" gridSize="10" guides="1" tooltips="1" connect="1" arrows="1" fold="1" page="1" pageScale="1" pageWidth="827" pageHeight="1169" math="0" shadow="0">
      <root>
        <mxCell id="0" />
        <mxCell id="1" parent="0" />
        <mxCell id="gN3-YZS077bV5XzOx70J-3" style="edgeStyle=orthogonalEdgeStyle;rounded=0;orthogonalLoop=1;jettySize=auto;html=1;entryX=0.5;entryY=0;entryDx=0;entryDy=0;" edge="1" parent="1" source="gN3-YZS077bV5XzOx70J-1" target="gN3-YZS077bV5XzOx70J-2">
          <mxGeometry relative="1" as="geometry" />
        </mxCell>
        <mxCell id="gN3-YZS077bV5XzOx70J-1" value="Начало&lt;div&gt;PushTail&lt;/div&gt;" style="ellipse;whiteSpace=wrap;html=1;" vertex="1" parent="1">
          <mxGeometry x="360" y="40" width="120" height="60" as="geometry" />
        </mxCell>
        <mxCell id="gN3-YZS077bV5XzOx70J-11" style="edgeStyle=orthogonalEdgeStyle;rounded=0;orthogonalLoop=1;jettySize=auto;html=1;entryX=0.5;entryY=0;entryDx=0;entryDy=0;" edge="1" parent="1" source="gN3-YZS077bV5XzOx70J-2" target="gN3-YZS077bV5XzOx70J-8">
          <mxGeometry relative="1" as="geometry" />
        </mxCell>
        <mxCell id="gN3-YZS077bV5XzOx70J-2" value="New(NewNode)" style="shape=process;whiteSpace=wrap;html=1;backgroundOutline=1;" vertex="1" parent="1">
          <mxGeometry x="360" y="140" width="120" height="60" as="geometry" />
        </mxCell>
        <mxCell id="gN3-YZS077bV5XzOx70J-4" value="Создание нового узла" style="text;html=1;align=center;verticalAlign=middle;whiteSpace=wrap;rounded=0;" vertex="1" parent="1">
          <mxGeometry x="550" y="155" width="70" height="30" as="geometry" />
        </mxCell>
        <mxCell id="gN3-YZS077bV5XzOx70J-7" value="" style="endArrow=none;dashed=1;html=1;rounded=0;exitX=1;exitY=0.5;exitDx=0;exitDy=0;entryX=0;entryY=0.5;entryDx=0;entryDy=0;" edge="1" parent="1" source="gN3-YZS077bV5XzOx70J-2" target="gN3-YZS077bV5XzOx70J-4">
          <mxGeometry width="50" height="50" relative="1" as="geometry">
            <mxPoint x="500" y="210" as="sourcePoint" />
            <mxPoint x="550" y="160" as="targetPoint" />
          </mxGeometry>
        </mxCell>
        <mxCell id="gN3-YZS077bV5XzOx70J-13" style="edgeStyle=orthogonalEdgeStyle;rounded=0;orthogonalLoop=1;jettySize=auto;html=1;entryX=0.5;entryY=0;entryDx=0;entryDy=0;" edge="1" parent="1" source="gN3-YZS077bV5XzOx70J-8" target="gN3-YZS077bV5XzOx70J-12">
          <mxGeometry relative="1" as="geometry" />
        </mxCell>
        <mxCell id="gN3-YZS077bV5XzOx70J-8" value="NewNode^.data := x" style="rounded=0;whiteSpace=wrap;html=1;" vertex="1" parent="1">
          <mxGeometry x="360" y="240" width="120" height="60" as="geometry" />
        </mxCell>
        <mxCell id="gN3-YZS077bV5XzOx70J-9" value="Значение x записывается в поле data нового узла." style="text;html=1;align=center;verticalAlign=middle;whiteSpace=wrap;rounded=0;" vertex="1" parent="1">
          <mxGeometry x="550" y="255" width="120" height="30" as="geometry" />
        </mxCell>
        <mxCell id="gN3-YZS077bV5XzOx70J-10" value="" style="endArrow=none;dashed=1;html=1;rounded=0;exitX=1;exitY=0.5;exitDx=0;exitDy=0;entryX=0;entryY=0.5;entryDx=0;entryDy=0;" edge="1" parent="1" source="gN3-YZS077bV5XzOx70J-8" target="gN3-YZS077bV5XzOx70J-9">
          <mxGeometry width="50" height="50" relative="1" as="geometry">
            <mxPoint x="490" y="330" as="sourcePoint" />
            <mxPoint x="540" y="280" as="targetPoint" />
          </mxGeometry>
        </mxCell>
        <mxCell id="gN3-YZS077bV5XzOx70J-17" style="edgeStyle=orthogonalEdgeStyle;rounded=0;orthogonalLoop=1;jettySize=auto;html=1;entryX=0.5;entryY=0;entryDx=0;entryDy=0;" edge="1" parent="1" source="gN3-YZS077bV5XzOx70J-12" target="gN3-YZS077bV5XzOx70J-16">
          <mxGeometry relative="1" as="geometry" />
        </mxCell>
        <mxCell id="gN3-YZS077bV5XzOx70J-12" value="NewNode^.next := nil" style="rounded=0;whiteSpace=wrap;html=1;" vertex="1" parent="1">
          <mxGeometry x="360" y="340" width="120" height="60" as="geometry" />
        </mxCell>
        <mxCell id="gN3-YZS077bV5XzOx70J-14" value="Поле next нового узла NewNode инициализируется значением nil" style="text;html=1;align=center;verticalAlign=middle;whiteSpace=wrap;rounded=0;" vertex="1" parent="1">
          <mxGeometry x="550" y="355" width="110" height="30" as="geometry" />
        </mxCell>
        <mxCell id="gN3-YZS077bV5XzOx70J-15" value="" style="endArrow=none;dashed=1;html=1;rounded=0;exitX=1;exitY=0.5;exitDx=0;exitDy=0;entryX=0;entryY=0.5;entryDx=0;entryDy=0;" edge="1" parent="1" source="gN3-YZS077bV5XzOx70J-12" target="gN3-YZS077bV5XzOx70J-14">
          <mxGeometry width="50" height="50" relative="1" as="geometry">
            <mxPoint x="500" y="420" as="sourcePoint" />
            <mxPoint x="550" y="370" as="targetPoint" />
          </mxGeometry>
        </mxCell>
        <mxCell id="gN3-YZS077bV5XzOx70J-19" style="edgeStyle=orthogonalEdgeStyle;rounded=0;orthogonalLoop=1;jettySize=auto;html=1;entryX=0.5;entryY=0;entryDx=0;entryDy=0;" edge="1" parent="1" source="gN3-YZS077bV5XzOx70J-16" target="gN3-YZS077bV5XzOx70J-18">
          <mxGeometry relative="1" as="geometry" />
        </mxCell>
        <mxCell id="gN3-YZS077bV5XzOx70J-25" style="edgeStyle=orthogonalEdgeStyle;rounded=0;orthogonalLoop=1;jettySize=auto;html=1;entryX=0.5;entryY=0;entryDx=0;entryDy=0;" edge="1" parent="1" source="gN3-YZS077bV5XzOx70J-16" target="gN3-YZS077bV5XzOx70J-24">
          <mxGeometry relative="1" as="geometry" />
        </mxCell>
        <mxCell id="gN3-YZS077bV5XzOx70J-16" value="Очередь не пуста" style="rhombus;whiteSpace=wrap;html=1;" vertex="1" parent="1">
          <mxGeometry x="360" y="430" width="120" height="60" as="geometry" />
        </mxCell>
        <mxCell id="gN3-YZS077bV5XzOx70J-29" style="edgeStyle=orthogonalEdgeStyle;rounded=0;orthogonalLoop=1;jettySize=auto;html=1;entryX=0.5;entryY=0;entryDx=0;entryDy=0;" edge="1" parent="1" source="gN3-YZS077bV5XzOx70J-18" target="gN3-YZS077bV5XzOx70J-27">
          <mxGeometry relative="1" as="geometry">
            <Array as="points">
              <mxPoint x="560" y="580" />
              <mxPoint x="450" y="580" />
            </Array>
          </mxGeometry>
        </mxCell>
        <mxCell id="gN3-YZS077bV5XzOx70J-18" value="Q.tail^.next := NewNode" style="rounded=0;whiteSpace=wrap;html=1;" vertex="1" parent="1">
          <mxGeometry x="500" y="490" width="120" height="60" as="geometry" />
        </mxCell>
        <mxCell id="gN3-YZS077bV5XzOx70J-20" value="да" style="text;html=1;align=center;verticalAlign=middle;whiteSpace=wrap;rounded=0;" vertex="1" parent="1">
          <mxGeometry x="460" y="430" width="60" height="30" as="geometry" />
        </mxCell>
        <mxCell id="gN3-YZS077bV5XzOx70J-21" value="последний элемент очереди&amp;nbsp; перенаправляется на новый узел, добавляя его в конец очереди" style="text;html=1;align=center;verticalAlign=middle;whiteSpace=wrap;rounded=0;" vertex="1" parent="1">
          <mxGeometry x="660" y="505" width="160" height="30" as="geometry" />
        </mxCell>
        <mxCell id="gN3-YZS077bV5XzOx70J-22" value="" style="endArrow=none;dashed=1;html=1;rounded=0;exitX=1;exitY=0.5;exitDx=0;exitDy=0;entryX=0;entryY=0.5;entryDx=0;entryDy=0;" edge="1" parent="1" source="gN3-YZS077bV5XzOx70J-18" target="gN3-YZS077bV5XzOx70J-21">
          <mxGeometry width="50" height="50" relative="1" as="geometry">
            <mxPoint x="630" y="580" as="sourcePoint" />
            <mxPoint x="680" y="530" as="targetPoint" />
          </mxGeometry>
        </mxCell>
        <mxCell id="gN3-YZS077bV5XzOx70J-28" style="edgeStyle=orthogonalEdgeStyle;rounded=0;orthogonalLoop=1;jettySize=auto;html=1;entryX=0.5;entryY=0;entryDx=0;entryDy=0;" edge="1" parent="1" source="gN3-YZS077bV5XzOx70J-24" target="gN3-YZS077bV5XzOx70J-27">
          <mxGeometry relative="1" as="geometry">
            <Array as="points">
              <mxPoint x="290" y="580" />
              <mxPoint x="450" y="580" />
            </Array>
          </mxGeometry>
        </mxCell>
        <mxCell id="gN3-YZS077bV5XzOx70J-24" value="Q.head := Q.tail" style="rounded=0;whiteSpace=wrap;html=1;" vertex="1" parent="1">
          <mxGeometry x="230" y="490" width="120" height="60" as="geometry" />
        </mxCell>
        <mxCell id="gN3-YZS077bV5XzOx70J-26" value="нет" style="text;html=1;align=center;verticalAlign=middle;whiteSpace=wrap;rounded=0;" vertex="1" parent="1">
          <mxGeometry x="290" y="430" width="60" height="30" as="geometry" />
        </mxCell>
        <mxCell id="gN3-YZS077bV5XzOx70J-27" value="Конец&amp;nbsp;&lt;div&gt;PushTail&lt;/div&gt;" style="ellipse;whiteSpace=wrap;html=1;" vertex="1" parent="1">
          <mxGeometry x="390" y="620" width="120" height="60" as="geometry" />
        </mxCell>
      </root>
    </mxGraphModel>
  </diagram>
</mxfile>
